<svg 
 xmlns="http://www.w3.org/2000/svg"
 xmlns:xlink="http://www.w3.org/1999/xlink"
 width="50px" height="50px">
<path fill-rule="evenodd"  fill="none"
 d="M25.000,-0.000 C38.807,-0.000 50.000,11.193 50.000,25.000 C50.000,38.807 38.807,50.000 25.000,50.000 C11.192,50.000 -0.001,38.807 -0.001,25.000 C-0.001,11.193 11.192,-0.000 25.000,-0.000 ZM21.997,1.704 C19.636,2.001 17.344,2.653 15.184,3.642 L15.781,4.947 C17.809,4.018 19.960,3.406 22.176,3.127 L21.997,1.704 ZM28.291,1.753 L28.089,3.173 C30.300,3.487 32.442,4.133 34.455,5.094 L35.073,3.799 C32.928,2.776 30.646,2.087 28.291,1.753 ZM48.468,25.027 C48.468,22.765 48.147,20.529 47.515,18.380 L46.139,18.785 C46.733,20.802 47.034,22.902 47.034,25.027 C47.034,25.143 47.033,25.259 47.031,25.375 L48.465,25.397 C48.467,25.274 48.468,25.150 48.468,25.027 ZM44.538,38.044 C44.621,37.920 44.702,37.795 44.782,37.670 C45.983,35.791 46.907,33.759 47.530,31.622 L47.530,31.622 C47.530,31.622 47.530,31.622 47.530,31.622 L46.153,31.221 C45.529,33.359 44.584,35.387 43.344,37.248 L44.538,38.044 ZM43.722,13.391 L44.940,12.634 C43.686,10.617 42.139,8.805 40.341,7.248 L39.402,8.332 C41.091,9.795 42.544,11.497 43.722,13.391 ZM34.399,46.563 C36.571,45.609 38.583,44.334 40.380,42.771 L39.439,41.688 C37.751,43.156 35.862,44.354 33.822,45.249 L34.399,46.563 ZM24.961,48.535 C24.961,48.535 24.961,48.535 24.961,48.535 C24.961,48.535 24.961,48.535 24.961,48.535 C26.094,48.535 27.232,48.453 28.345,48.293 L28.140,46.873 C27.095,47.024 26.025,47.101 24.961,47.101 C24.961,47.101 24.961,47.101 24.961,47.101 C23.796,47.101 22.628,47.009 21.488,46.829 L21.264,48.246 C22.478,48.438 23.722,48.535 24.961,48.535 ZM34.064,38.707 L30.914,24.663 L39.319,24.663 L24.960,8.903 L10.602,24.663 L19.007,24.663 L15.856,38.707 L34.064,38.707 ZM15.232,46.433 L15.826,45.127 C13.799,44.204 11.925,42.981 10.257,41.490 L9.301,42.560 C11.077,44.147 13.072,45.450 15.232,46.433 ZM10.785,8.106 L9.864,7.007 C8.041,8.535 6.466,10.322 5.180,12.320 L6.386,13.096 C7.594,11.220 9.074,9.541 10.785,8.106 ZM5.208,37.777 L6.412,36.998 C5.198,35.121 4.281,33.080 3.686,30.933 L2.304,31.316 C2.938,33.604 3.915,35.778 5.208,37.777 ZM2.887,25.106 L2.887,25.027 C2.887,22.784 3.222,20.572 3.882,18.451 L2.513,18.025 C1.809,20.283 1.452,22.639 1.452,25.030 L1.452,25.106 L2.887,25.106 Z"/>
</svg>